<?xml version="1.0"?>
<svg xmlns="http://www.w3.org/2000/svg" xmlns:xlink="http://www.w3.org/1999/xlink" xmlns:svgjs="http://svgjs.com/svgjs" version="1.1" width="512" height="512" x="0" y="0" viewBox="0 0 447.6 447" style="enable-background:new 0 0 512 512" xml:space="preserve" class=""><g><link type="text/css" rel="stylesheet" id="dark-mode-custom-link"/><link type="text/css" rel="stylesheet" id="dark-mode-general-link"/><style lang="en" type="text/css" id="dark-mode-custom-style"/><style lang="en" type="text/css" id="dark-mode-native-style"/><path xmlns="http://www.w3.org/2000/svg" d="m215.800781 447.195312v-111.046874c-30.925781.429687-61.6875 4.5625-91.632812 12.304687 20.167969 55.957031 53.488281 94.03125 91.632812 98.742187zm0 0" fill="#7a7c83" data-original="#000000" style="" class=""/><path xmlns="http://www.w3.org/2000/svg" d="m136.207031 231.746094h-32.296875c.460938 34.367187 5.59375 68.507812 15.257813 101.488281 31.5625-8.25 64.011719-12.640625 96.632812-13.070313v-8.800781c-42.242187-3.90625-75.695312-37.371093-79.59375-79.617187zm0 0" fill="#7a7c83" data-original="#000000" style="" class=""/><path xmlns="http://www.w3.org/2000/svg" d="m109.273438 352.925781c-17.566407 5.539063-34.464844 12.992188-50.402344 22.222657 28.460937 31.027343 65.082031 53.414062 105.671875 64.597656-25.441407-23.824219-44.453125-53.6875-55.269531-86.820313zm0 0" fill="#7a7c83" data-original="#000000" style="" class=""/><path xmlns="http://www.w3.org/2000/svg" d="m231.800781 223.746094c0 4.421875-3.582031 8-8 8s-8-3.578125-8-8c0-4.417969 3.582031-8 8-8s8 3.582031 8 8zm0 0" fill="#7a7c83" data-original="#000000" style="" class=""/><path xmlns="http://www.w3.org/2000/svg" d="m103.910156 215.746094h32.296875c3.90625-42.230469 37.359375-75.683594 79.59375-79.589844v-8.542969c-32.632812-.515625-65.082031-4.996093-96.632812-13.34375-9.664063 32.976563-14.796875 67.117188-15.257813 101.476563zm0 0" fill="#7a7c83" data-original="#000000" style="" class=""/><path xmlns="http://www.w3.org/2000/svg" d="m87.910156 231.746094h-87.910156c1.660156 47.746094 18.625 93.6875 48.382812 131.058594 17.5625-10.472657 36.28125-18.871094 55.777344-25.03125-10.296875-34.421876-15.765625-70.101563-16.25-106.027344zm0 0" fill="#7a7c83" data-original="#000000" style="" class=""/><path xmlns="http://www.w3.org/2000/svg" d="m164.542969 7.746094c-40.582031 11.1875-77.195313 33.566406-105.65625 64.585937 15.9375 9.230469 32.835937 16.679688 50.402343 22.214844 10.816407-33.121094 29.824219-62.976563 55.253907-86.800781zm0 0" fill="#7a7c83" data-original="#000000" style="" class=""/><path xmlns="http://www.w3.org/2000/svg" d="m104.160156 109.714844c-19.496094-6.15625-38.214844-14.554688-55.777344-25.023438-29.757812 37.371094-46.722656 83.3125-48.382812 131.054688h87.910156c.484375-35.921875 5.953125-71.609375 16.25-106.03125zm0 0" fill="#7a7c83" data-original="#000000" style="" class=""/><path xmlns="http://www.w3.org/2000/svg" d="m283.054688 439.746094c40.585937-11.183594 77.199218-33.5625 105.65625-64.582032-15.933594-9.230468-32.835938-16.679687-50.398438-22.214843-10.820312 33.121093-29.824219 62.976562-55.257812 86.796875zm0 0" fill="#7a7c83" data-original="#000000" style="" class=""/><path xmlns="http://www.w3.org/2000/svg" d="m231.800781 336.148438v111.046874c38.136719-4.710937 71.464844-42.785156 91.632813-98.734374-29.945313-7.75-60.707032-11.882813-91.632813-12.3125zm0 0" fill="#7a7c83" data-original="#000000" style="" class=""/><path xmlns="http://www.w3.org/2000/svg" d="m231.800781 311.339844v8.800781c32.621094.429687 65.070313 4.820313 96.632813 13.070313 9.660156-32.972657 14.792968-67.105469 15.253906-101.464844h-32.296875c-3.90625 42.234375-37.355469 75.6875-79.589844 79.59375zm0 0" fill="#7a7c83" data-original="#000000" style="" class=""/><path xmlns="http://www.w3.org/2000/svg" d="m215.800781 111.347656v-111.046875c-38.136719 4.710938-71.464843 42.785157-91.632812 98.734375 29.941406 7.75 60.707031 11.882813 91.632812 12.3125zm0 0" fill="#7a7c83" data-original="#000000" style="" class=""/><path xmlns="http://www.w3.org/2000/svg" d="m343.441406 337.78125c19.496094 6.15625 38.210938 14.554688 55.773438 25.023438 29.761718-37.371094 46.722656-83.3125 48.386718-131.058594h-87.914062c-.480469 35.925781-5.949219 71.613281-16.246094 106.035156zm0 0" fill="#7a7c83" data-original="#000000" style="" class=""/><path xmlns="http://www.w3.org/2000/svg" d="m359.6875 215.746094h87.914062c-1.664062-47.742188-18.625-93.683594-48.386718-131.054688-17.5625 10.472656-36.277344 18.871094-55.773438 25.03125 10.296875 34.421875 15.765625 70.101563 16.246094 106.023438zm0 0" fill="#7a7c83" data-original="#000000" style="" class=""/><path xmlns="http://www.w3.org/2000/svg" d="m295.800781 223.746094c0-39.761719-32.234375-72-72-72s-72 32.238281-72 72c0 39.765625 32.234375 72 72 72 39.746094-.042969 71.957031-32.25 72-72zm-72 24c-3.566406-.011719-7.078125-.832032-10.28125-2.398438l-16.0625 16.0625-11.3125-11.308594 16.054688-16.074218c-1.566407-3.199219-2.386719-6.714844-2.398438-10.28125.042969-10.132813 6.445313-19.148438 16-22.527344v-33.472656h16v33.472656c11.011719 3.878906 17.621094 15.136719 15.640625 26.644531-1.976562 11.503907-11.964844 19.90625-23.640625 19.882813zm0 0" fill="#7a7c83" data-original="#000000" style="" class=""/><path xmlns="http://www.w3.org/2000/svg" d="m311.390625 215.746094h32.296875c-.457031-34.359375-5.589844-68.5-15.253906-101.476563-31.550782 8.351563-64 12.832031-96.632813 13.34375v8.542969c42.234375 3.90625 75.683594 37.359375 79.589844 79.589844zm0 0" fill="#7a7c83" data-original="#000000" style="" class=""/><path xmlns="http://www.w3.org/2000/svg" d="m338.328125 94.570312c17.5625-5.539062 34.464844-12.992187 50.398437-22.222656-28.460937-31.027344-65.082031-53.414062-105.671874-64.601562 25.441406 23.828125 44.453124 53.691406 55.273437 86.824218zm0 0" fill="#7a7c83" data-original="#000000" style="" class=""/><path xmlns="http://www.w3.org/2000/svg" d="m231.800781.300781v111.046875c30.925781-.429687 61.6875-4.5625 91.632813-12.304687-20.167969-55.957031-53.488282-94.03125-91.632813-98.742188zm0 0" fill="#7a7c83" data-original="#000000" style="" class=""/></g></svg>
