<?xml version="1.0"?>
<svg xmlns="http://www.w3.org/2000/svg" xmlns:xlink="http://www.w3.org/1999/xlink" xmlns:svgjs="http://svgjs.com/svgjs" version="1.1" width="512" height="512" x="0" y="0" viewBox="0 0 512 512" style="enable-background:new 0 0 512 512" xml:space="preserve" class=""><g><link type="text/css" rel="stylesheet" id="dark-mode-custom-link"/><link type="text/css" rel="stylesheet" id="dark-mode-general-link"/><style lang="en" type="text/css" id="dark-mode-custom-style"/><style lang="en" type="text/css" id="dark-mode-native-style"/><g xmlns="http://www.w3.org/2000/svg"><g><g><path d="m147.726 157.726c-5.523 0-10-4.477-10-10s4.477-10 10-10c6.875 0 12.469-5.594 12.469-12.469s-5.594-12.469-12.469-12.469c-5.947 0-11.092 4.223-12.235 10.042-1.065 5.418-6.324 8.949-11.74 7.885-5.419-1.064-8.95-6.32-7.885-11.74 2.98-15.174 16.379-26.187 31.86-26.187 17.904 0 32.469 14.565 32.469 32.469s-14.566 32.469-32.469 32.469z" fill="#d4d8f0" data-original="#000000" style="" class=""/></g><g><path d="m147.726 202.665c-16.108 0-29.932-12.017-32.156-27.953-.208-1.486-.313-3.006-.313-4.516 0-5.523 4.477-10 10-10s10 4.477 10 10c0 .588.041 1.177.121 1.75.853 6.111 6.162 10.719 12.349 10.719 6.875 0 12.469-5.594 12.469-12.469 0-6.876-5.594-12.47-12.469-12.47-5.523 0-10-4.477-10-10s4.477-10 10-10c17.904 0 32.469 14.566 32.469 32.47s-14.567 32.469-32.47 32.469z" fill="#d4d8f0" data-original="#000000" style="" class=""/></g><g><g><path d="m208.704 413.459c-5.523 0-10-4.477-10-10v-77.812h-8.769c-5.523 0-10-4.477-10-10s4.477-10 10-10h18.769c5.523 0 10 4.477 10 10v87.812c0 5.523-4.477 10-10 10z" fill="#d4d8f0" data-original="#000000" style="" class=""/></g></g><g><g><path d="m360.137 238.644c-17.034 0-18.316-.428-19.654-.875-3.295-1.098-5.761-3.595-6.762-6.851-1.705-5.541.81-8.834 6.321-16.051 4.459-5.838 12.758-16.706 26.667-36.579 4.002-5.718 6.584-10.809 7.679-15.142l.272-2.129c-.286-6.624-5.765-11.925-12.458-11.925-5.947 0-11.092 4.223-12.235 10.042-1.064 5.419-6.324 8.947-11.74 7.885-5.419-1.064-8.949-6.321-7.885-11.74 2.981-15.173 16.38-26.187 31.86-26.187 17.904 0 32.469 14.565 32.469 32.469 0 .424-.027.847-.081 1.268l-.434 3.397c-.042.333-.102.664-.178.991-1.608 6.934-5.27 14.517-10.885 22.539-9.159 13.086-15.936 22.345-20.81 28.863 7.772-.015 17.146-.088 25.983-.199 5.525-.031 10.055 4.351 10.125 9.874.07 5.522-4.351 10.055-9.874 10.125-12.538.159-21.678.225-28.38.225z" fill="#d4d8f0" data-original="#000000" style="" class=""/></g></g><g><path d="m498.398 245.857c9.028-19.467 13.602-40.302 13.602-61.998 0-62.79-39.813-118.86-99.069-139.522-5.213-1.817-10.916.935-12.735 6.15-1.818 5.215.935 10.917 6.15 12.735 51.232 17.864 85.654 66.344 85.654 120.637 0 20.04-4.507 39.221-13.396 57.009-1.234 2.469-1.392 5.337-.438 7.927l9.492 25.764h-29.428c-2.533 0-4.972.961-6.824 2.69-23.721 22.142-54.665 34.335-87.133 34.335-45.187 0-86.536-23.603-109.586-62.068 25.246-26.516 40.763-62.376 40.763-101.791 0-21.961-4.817-42.819-13.45-61.571 11.947-10.084 25.45-17.789 40.202-22.934 5.215-1.818 7.968-7.52 6.15-12.735s-7.521-7.967-12.735-6.15c-15.798 5.509-30.353 13.552-43.385 23.962-26.271-41.039-72.266-68.297-124.506-68.297-81.456 0-147.726 66.27-147.726 147.726 0 21.696 4.574 42.531 13.602 61.999l-12.985 35.244c-1.13 3.068-.689 6.495 1.181 9.177s4.933 4.28 8.203 4.28h39.906c8.448 7.473 17.633 13.891 27.376 19.184-9.172 19.094-13.987 40.186-13.987 61.522 0 66.507 46.409 124.185 110.897 138.601l23.183 30.338c1.892 2.476 4.83 3.928 7.946 3.928s6.054-1.453 7.946-3.928l23.182-30.338c64.488-14.416 110.897-72.093 110.897-138.601 0-3.126-.105-5.893-.302-8.545 5.674.66 11.426.997 17.232.997 36.215 0 70.794-13.119 97.82-37.025h39.903c3.27 0 6.333-1.598 8.203-4.28s2.311-6.109 1.181-9.177zm-444.629-7.431h-29.428l9.492-25.764c.954-2.589.796-5.458-.438-7.927-8.888-17.788-13.395-36.969-13.395-57.009 0-70.429 57.297-127.726 127.726-127.726s127.726 57.297 127.726 127.726-57.297 127.726-127.726 127.726c-32.468 0-63.412-12.194-87.133-34.335-1.852-1.729-4.291-2.691-6.824-2.691zm273.575 100.707c0 58.253-41.426 108.62-98.502 119.761-2.4.469-4.545 1.8-6.03 3.743l-17.493 22.893-17.494-22.893c-1.485-1.943-3.63-3.274-6.03-3.743-57.076-11.141-98.502-61.508-98.502-119.761 0-18.464 4.192-36.706 12.174-53.192 16.521 6.244 34.185 9.51 52.257 9.51 34.731 0 66.701-12.048 91.951-32.184 20.156 31.649 51.248 54.091 86.866 63.454.534 4.071.803 7.673.803 12.412z" fill="#d4d8f0" data-original="#000000" style="" class=""/></g><g><path d="m364.27 56.13c-4.36 0-8.293-2.931-9.56-7.097-1.186-3.897.182-8.286 3.414-10.783 3.196-2.469 7.644-2.776 11.147-.773 3.623 2.072 5.593 6.347 4.839 10.45-.863 4.697-5.063 8.203-9.84 8.203z" fill="#d4d8f0" data-original="#000000" style="" class=""/></g></g></g></g></svg>
